<svg width="30" height="33" viewBox="0 0 30 33" fill="none" xmlns="http://www.w3.org/2000/svg">
<path d="M15.7602 27.8618V33C17.5143 33 19.1014 32.9189 20.772 32.351C22.0528 31.9453 23.3057 31.3774 24.3916 30.6202C30.5728 26.3203 29.9602 19.235 29.9602 12.7176V6.76808C29.9602 5.9027 30.1551 4.71279 29.6818 3.92854C28.6516 2.30595 25.7559 0.98083 24.1132 0.00727444V16.5036C24.1132 20.3979 23.612 24.238 19.6583 26.2392V12.1767H13.8112V22.1827C6.12645 21.1821 3.48134 12.2308 9.63469 7.57938C10.9712 6.57878 12.3912 6.03791 14.0896 5.95678C15.1477 5.92974 16.9018 6.30834 17.8206 5.68635C19.1292 4.79392 20.2151 1.49465 20.4935 0.00727444C14.4237 0.00727444 8.38175 -0.37133 3.8433 4.33419C-2.05946 10.446 -1.02926 20.6683 6.01507 25.482C9.07783 27.5914 12.1406 27.8618 15.7602 27.8618Z" fill="#EF5A6F"/>
</svg>
